<svg width="97" height="96" xmlns="http://www.w3.org/2000/svg" xmlns:xlink="http://www.w3.org/1999/xlink" overflow="hidden"><defs><clipPath id="clip0"><rect x="388" y="232" width="97" height="96"/></clipPath><clipPath id="clip1"><rect x="389" y="232" width="96" height="96"/></clipPath><clipPath id="clip2"><rect x="389" y="232" width="96" height="96"/></clipPath><clipPath id="clip3"><rect x="389" y="232" width="96" height="96"/></clipPath></defs><g clip-path="url(#clip0)" transform="translate(-388 -232)"><g clip-path="url(#clip1)"><g clip-path="url(#clip2)"><g clip-path="url(#clip3)"><path d="M451.93 282C448.55 279.12 444.16 277.77 440 276.47L440 252.29C444.039 252.674 447.814 254.469 450.66 257.36L455.46 252.76C451.352 248.581 445.848 246.064 440 245.69L440 237 434 237 434 246.07C431.945 246.47 429.963 247.178 428.12 248.17 420.54 252.3 416.67 262 419.78 270.17 422.19 276.47 428 279.28 434 281.39L434 307.57C429.35 307 425.49 304.33 422.29 301L417.49 305.59C419.776 308.183 422.501 310.353 425.54 312 428.197 313.264 431.066 314.02 434 314.23L434 323 440 323 440 314C446.88 312.85 453.2 308.62 455.92 302 458.64 295.38 457.65 286.89 451.93 282ZM429 271.73C423.5 267.09 424.84 258.11 430.67 254.39 431.703 253.727 432.824 253.212 434 252.86L434 274.55C432.19 273.892 430.5 272.939 429 271.73ZM447.09 303.55C445.138 305.458 442.676 306.76 440 307.3L440 283.41C444 284.78 448.59 286.52 450.22 290.78 451.85 295.04 450.21 300.37 447.09 303.55Z" fill="#BF9000" fill-rule="nonzero" fill-opacity="1"/></g></g></g></g></svg>